<svg id="eSeWNAcqZPL1" xmlns="http://www.w3.org/2000/svg" xmlns:xlink="http://www.w3.org/1999/xlink" viewBox="0 0 300 300" shape-rendering="geometricPrecision" text-rendering="geometricPrecision" project-id="2ede1eafacd54b52b153e3e4e02b85c7" export-id="e10c45253fda479b9d88b8f04d528a60" cached="true"><path d="M256.11238,120.96713c-32.71986,4.76568-73.13488,7.58138-116.87193,7.58138-34.58162,0-67.08644-1.76026-95.35283-4.85286c7.48399-48.47593,52.03944-85.75119,105.95106-85.93132.12665-.00044.25335-.00067.3801-.00067v-.00001c.02944,0,.05887.00001.0883.00004c53.03707.03424,97.08372,35.97025,105.80529,83.20345l.00001-.00001Zm-93.72799,80.05559c0,30.32252-23.03827,54.90378-51.45741,54.90378-27.61279,0-50.14573-23.20614-51.40217-52.33702h20.52772c0,18.19351,13.82296,32.94227,30.87445,32.94227s30.87445-14.74875,30.87445-32.94227v-75.04097h20.58296c0,33.7999,0,72.47309,0,72.4742v.00001ZM150.18514,50.41423c-43.31053,0-79.14686,25.88998-85.15417,59.58407c22.63419,2.14436,48.66228,3.36491,76.35337,3.36491c35.02226,0,67.3844-1.95237,93.58469-5.25683-6.9871-32.76648-42.28758-57.69216-84.78389-57.69216v.00001Z" transform="translate(0 3.154925)" stroke="#fff" stroke-width="2"/></svg>
