<svg id="eKmkWbU5X7R1" xmlns="http://www.w3.org/2000/svg" xmlns:xlink="http://www.w3.org/1999/xlink" viewBox="0 0 300 300" shape-rendering="geometricPrecision" text-rendering="geometricPrecision" project-id="f61ca48b21e440c8b433a9aa8e962b4f" export-id="2dd79156357d493080fd187031b2b885" cached="false"><defs><linearGradient id="eKmkWbU5X7R2-fill" x1="0.653992" y1="0.5" x2="0.062173" y2="0.954428" spreadMethod="pad" gradientUnits="objectBoundingBox" gradientTransform="translate(0 0)"><stop id="eKmkWbU5X7R2-fill-0" offset="0%" stop-color="#a900ab"/><stop id="eKmkWbU5X7R2-fill-1" offset="100%" stop-color="#ff00b9"/></linearGradient><linearGradient id="eKmkWbU5X7R3-fill" x1="0.379855" y1="0.549384" x2="1" y2="1" spreadMethod="pad" gradientUnits="objectBoundingBox" gradientTransform="translate(0 0)"><stop id="eKmkWbU5X7R3-fill-0" offset="0%" stop-color="#ab00ad"/><stop id="eKmkWbU5X7R3-fill-1" offset="100%" stop-color="#ff00b9"/></linearGradient><linearGradient id="eKmkWbU5X7R4-fill" x1="0.5" y1="0.034508" x2="0.5" y2="0.999999" spreadMethod="pad" gradientUnits="objectBoundingBox" gradientTransform="translate(0 0)"><stop id="eKmkWbU5X7R4-fill-0" offset="0%" stop-color="#c800c9"/><stop id="eKmkWbU5X7R4-fill-1" offset="100%" stop-color="#ff00b9"/></linearGradient></defs><path d="M96.02362,241.87878c-1.30568,2.83968-4.56335,3.89674-7.95232,3.86019l-54.12347-.41023c-3.65225,0-6.11764-4.19561-5.37801-8.20812c1.15296-27.81526,6.00869-84.62796,15.7906-121.46521-.17626,2.33204-.16351,4.68902.0539,7.05558c1.98038,21.31263,22.61137,68.18191,63.83466,101.05773L96.02362,241.87878Z" transform="matrix(1.180363 0 0 1.121199-23.170822-21.676492)" fill="url(#eKmkWbU5X7R2-fill)" stroke-width="0.6" stroke-linecap="round"/><path d="M263.26346,237.12062c.73963,4.01251-1.72576,8.20812-5.37801,8.20812l-54.12347.41023c-3.38897.03655-6.64664-1.02051-7.95232-3.86019L183.58429,223.7687c41.22327-32.87582,61.85425-79.74509,63.83464-101.05771.21741-2.36662.23016-4.72366.05389-7.05577c9.78194,36.83725,14.63768,93.6501,15.79065,121.4654h-.00001Z" transform="matrix(1.180363 0 0 1.121199-21.974919-21.676279)" fill="url(#eKmkWbU5X7R3-fill)" stroke-width="0.6" stroke-linecap="round"/><path d="M154.51929,248.12866c-1.2427.74712-2.70978,1.12068-4.15097,1.12067-.00002,0-.00006,0-.00008,0-.12301,0-.24581-.00272-.36826-.00816-.12246.00544-.24527.00816-.36826.00816-.00002,0-.00006,0-.00008,0s-.00001,0-.00002,0c-1.44118.00001-2.90826-.37355-4.15095-1.12067l-.00019-.00012C70.05798,215.07217,33.09769,141.02914,30.19041,111.30955C25.42929,62.08058,103.82235,16.548,147.38416,84.71186l.00033.00018c.01712.01413.03418.0281.0512.04192.03741-.01396.07484-.02794.11228-.04192c0,.00001.00001.00001.00001.00002s.00004-.00001.00005-.00002.00001.00001.00002.00002.00004-.00001.00004-.00002c.86574.62424,1.64586,1.02501,2.45189,1.0702.80602-.04518,1.58615-.44596,2.45189-1.0702.00001.00001.00002.00001.00004.00002s0,0,.00001,0s.00001-.00001.00002-.00002.00004.00001.00005.00002.00001-.00001.00001-.00002c.03745.01398.07488.02796.11228.04192.01702-.01382.03409-.02779.0512-.04192l.00033-.00018c43.5618-68.16387,121.95487-22.63128,117.19375,26.59769-2.90729,29.7196-39.86756,103.76263-115.29007,136.81899l-.0002.00012ZM62.1362,117.42427c1.82296,9.71569,11.33162,19.34021,21.43244,19.1995-.08614.91365-.13035,1.84182-.13035,2.78189c0,14.05587,9.88247,25.45041,22.07311,25.45041s22.07311-11.39454,22.07311-25.45041c0-.89985-.0405-1.78879-.11952-2.66454c1.34924-16.70801-4.01393-27.95991-12.55778-32.16218c1.40469,2.57085,2.79309,6.54603,3.78077,11.17073-6.10802-4.3504-10.88622-11.98042-13.43963-16.03839-1.49688,3.88954-1.90064,9.15263-.81686,13.52354-6.79677-1.88579-12.88735-6.91258-15.45786-11.41443-1.08249,4.17964-.22358,9.23328,2.17011,13.01881-6.56015-.20706-13.11166-3.01358-16.63375-6.29164.35206,7.17481,6.55495,15.05843,13.88232,14.79076-.01411.01996-.02819.03995-.04225.05996-9.88128.98776-20.27424-1.84937-26.21384-5.97402l-.00002.00001Zm57.25554,2.1916c-.13395-.12506-.2692-.24835-.40572-.36984l.3424-.04026c.02149.13634.0426.27305.06332.4101Zm118.47206-2.19161c-5.81961,4.04132-15.91446,6.84663-25.61439,6.02922-.02371-.03697-.0475-.07386-.07137-.11068c7.07627-.14711,12.9691-7.80736,13.31198-14.79524-3.52209,3.27806-10.0736,6.08458-16.63375,6.29164c2.39369-3.78553,3.2526-8.83917,2.17011-13.01881-2.53859,4.44596-8.5104,9.40391-15.20504,11.34275-.07712-.0053-.15434-.01013-.23166-.01451c1.05728-4.35375.64904-9.57334-.83802-13.43735-2.55341,4.05797-7.33161,11.68799-13.43963,16.03839.98768-4.6247,2.37608-8.59988,3.78077-11.17073-8.46967,4.16579-13.81365,15.25932-12.59141,31.72823-.05686.74484-.0859,1.49889-.0859,2.26076c0,14.05587,9.88247,25.45041,22.07311,25.45041s22.07311-11.39454,22.07311-25.45041c0-.65384-.02138-1.30193-.06339-1.94337c10.07585.09738,19.54655-9.50607,21.36548-19.20029v-.00001Z" transform="translate(.000001 0)" fill="url(#eKmkWbU5X7R4-fill)" stroke-width="0.6" stroke-linecap="round"/></svg>
